<svg width="24" height="24" viewBox="0 0 24 24" fill="none" xmlns="http://www.w3.org/2000/svg">
<path d="M19.5 6H22.5V24H3V6H6V4.5H7.5V6H18V4.5H19.5V6ZM21 7.5H19.5V9H21V7.5ZM18 7.5H7.5V9H18V7.5ZM6 7.5H4.5V9H6V7.5ZM4.5 22.5H21V10.5H4.5V22.5ZM3 4.5V3H1.5V19.5H0V1.5H3V0H4.5V1.5H15V0H16.5V1.5H19.5V3H16.5V4.5H15V3H4.5V4.5H3ZM7.5 16.5V15H9V16.5H7.5ZM10.5 16.5V15H12V16.5H10.5ZM13.5 16.5V15H15V16.5H13.5ZM16.5 16.5V15H18V16.5H16.5ZM7.5 19.5V18H9V19.5H7.5ZM10.5 19.5V18H12V19.5H10.5ZM13.5 19.5V18H15V19.5H13.5ZM10.5 13.5V12H12V13.5H10.5ZM13.5 13.5V12H15V13.5H13.5ZM16.5 13.5V12H18V13.5H16.5Z" fill="#00A5AD"/>
</svg>
