<svg width="24" height="24" viewBox="0 0 24 24" fill="none" xmlns="http://www.w3.org/2000/svg">
<path d="M21.3553 4.93311L12.3553 1.93311C12.1249 1.85531 11.8752 1.85531 11.6447 1.93311L2.64472 4.93311C2.42998 5.00423 2.24166 5.13845 2.10435 5.31823C1.96705 5.49802 1.88713 5.71502 1.87504 5.94092C1.87401 5.96059 1.87401 5.98031 1.87504 5.99998V13.5C1.87504 13.7984 1.99356 14.0845 2.20454 14.2955C2.41552 14.5065 2.70167 14.625 3.00004 14.625C3.29841 14.625 3.58455 14.5065 3.79553 14.2955C4.00651 14.0845 4.12504 13.7984 4.12504 13.5V7.56092L6.34785 8.30155C5.658 9.62201 5.453 11.1426 5.76852 12.5986C6.08405 14.0546 6.90012 15.3539 8.07472 16.2703C6.53762 17.0283 5.23675 18.1917 4.31254 19.635C4.22931 19.7587 4.1715 19.8977 4.14247 20.0439C4.11343 20.1902 4.11376 20.3407 4.14342 20.4868C4.17309 20.6329 4.2315 20.7717 4.31526 20.895C4.39902 21.0184 4.50646 21.1238 4.63134 21.2053C4.75621 21.2867 4.89604 21.3425 5.04267 21.3695C5.18931 21.3964 5.33984 21.3939 5.48551 21.3622C5.63118 21.3304 5.76909 21.27 5.89122 21.1845C6.01335 21.099 6.11726 20.9901 6.19691 20.864C7.53472 18.8053 9.65629 17.625 12 17.625C14.3438 17.625 16.4653 18.8053 17.8078 20.864C17.8875 20.9901 17.9914 21.099 18.1135 21.1845C18.2357 21.27 18.3736 21.3304 18.5192 21.3622C18.6649 21.3939 18.8154 21.3964 18.9621 21.3695C19.1087 21.3425 19.2485 21.2867 19.3734 21.2053C19.4983 21.1238 19.6057 21.0184 19.6895 20.895C19.7733 20.7717 19.8317 20.6329 19.8613 20.4868C19.891 20.3407 19.8913 20.1902 19.8623 20.0439C19.8333 19.8977 19.7755 19.7587 19.6922 19.635C18.7671 18.19 17.4645 17.0255 15.9253 16.2675C17.0999 15.3511 17.916 14.0518 18.2316 12.5958C18.5471 11.1398 18.3421 9.6192 17.6522 8.29873L21.3553 7.06405C21.5791 6.9892 21.7736 6.84592 21.9114 6.65447C22.0493 6.46301 22.1234 6.23308 22.1234 5.99717C22.1234 5.76127 22.0493 5.53133 21.9114 5.33988C21.7736 5.14842 21.5791 5.00514 21.3553 4.9303V4.93311ZM12 4.18311L17.4422 5.99998L12 7.81405L6.56254 5.99998L12 4.18311ZM16.125 11.25C16.1252 11.8907 15.976 12.5226 15.6895 13.0957C15.4029 13.6688 14.9868 14.1672 14.4741 14.5515C13.9614 14.9358 13.3662 15.1953 12.7358 15.3096C12.1054 15.4239 11.457 15.3897 10.842 15.2099C10.227 15.03 9.66245 14.7093 9.19297 14.2733C8.72348 13.8373 8.36202 13.2979 8.13723 12.698C7.91245 12.098 7.83052 11.4539 7.89794 10.8167C7.96536 10.1795 8.18028 9.56683 8.52566 9.02717L11.6447 10.0669C11.8753 10.1444 12.1248 10.1444 12.3553 10.0669L15.4744 9.02717C15.8998 9.69044 16.1257 10.462 16.125 11.25Z" fill="#00A5AD"/>
</svg>
